<?xml version="1.0" encoding="UTF-8"?>
<svg width="200" height="30.509" viewBox="0 0 400 61.017" version="1.1" xmlns="http://www.w3.org/2000/svg" fill="#000000">
 <path d="m352.54 50.495 29.427-39.061h-29.427v-11.434h46.803v10.431l-29.427 39.153h30.081v11.434h-47.458zm-97.681-0.54576c4.6102 0 7.339-2.8373 7.339-7.2271 0-3.8441-2.5593-7.1356-7.339-7.1356h-15.62v14.363zm-0.42712-25.434c4.0949 0 6.6576-2.8339 6.6576-6.7695 0-3.7492-2.5627-6.678-6.6576-6.678h-15.193v13.447zm-27.315-24.515h29.959c10.841 0 16.39 7.4102 16.39 15.553 0 7.6847-4.4407 12.807-9.817 13.997 6.061 1.0034 10.925 7.3186 10.925 15 0 9.1492-5.7186 16.468-16.559 16.468h-30.898zm-188.39 0v23.966h-26.695v-23.966h-12.034v61.017h12.034v-25.614h26.695v25.614h12.119v-61.017zm49.407 0v61.017h40.678v-11.254h-28.441v-14.176h27.837v-11.163h-27.837v-13.261h28.441v-11.163zm77.966 0v61.017h33.898v-11.434h-22.546v-49.583zm138.98 61.017h10.169v-61.017h-10.169z"/>
</svg>