<?xml version="1.0" encoding="utf-8"?>
<!-- Generator: Adobe Illustrator 25.0.0, SVG Export Plug-In . SVG Version: 6.00 Build 0)  -->
<svg version="1.1" id="katman_1" xmlns="http://www.w3.org/2000/svg" xmlns:xlink="http://www.w3.org/1999/xlink" x="0px" y="0px"
	 viewBox="0 0 1694.2 1224.9" style="enable-background:new 0 0 1694.2 1224.9;" xml:space="preserve">
<style type="text/css">
	.st0{fill:#FFFFFF;}
</style>
<g>
	<path d="M380,135.8c138.3-23.9,277.2-37.5,417.2-40.2c173.5-3.3,345.7,10.6,516.8,40.1c0.3,1.9,0.7,3.4,0.7,4.9
		c2.1,59.4,3.8,118.7,2.8,178.1c-1,61.2-4.8,122.2-13.5,182.9c-11.3,78.7-30.2,155.3-61.5,228.6c-61.8,144.5-160.2,258.2-291.3,344
		c-31.5,20.6-64.5,38.4-98.6,54.2c-3.8,1.8-6.8,1.9-10.7,0c-208.6-99.8-350.3-258-419.5-479.7c-15.3-49-25.3-99.2-32.5-150.1
		c-10.8-76.3-14-153.1-13.3-230.1c0.4-41.9,1.9-83.7,2.8-125.6C379.5,140.8,379.7,138.5,380,135.8z M399.1,155.2
		c0,3.9,0.1,6.6,0,9.4c-0.5,20.6-1.1,41.1-1.7,61.7c-2,69.6-1.3,139.1,4.5,208.5c4,46.8,10.4,93.3,20.2,139.3
		c15.1,71.1,38,139.5,72.2,203.8c78.9,148,195.7,256.1,346.5,328.3c4.7,2.2,8.4,1.8,12.9-0.3c37.1-17.4,72.6-37.5,106.3-60.7
		c111.5-76.9,197.8-175.4,255.2-298.5c35.9-77,57.1-158.2,69.1-242.1c8.3-58.1,12.6-116.6,12.9-175.3c0.3-47.7-0.8-95.4-1.4-143.2
		c-0.1-10.1-0.8-20.2-1.2-30.9c-144.9-25.2-290.5-38.1-437.2-38.7C703.8,115.8,551.3,128.7,399.1,155.2z"/>
	<path class="st0" d="M399.1,155.2c152.2-26.4,304.7-39.4,458.3-38.8c146.7,0.6,292.3,13.5,437.2,38.7c0.4,10.7,1.1,20.8,1.2,30.9
		c0.6,47.7,1.6,95.4,1.4,143.2c-0.3,58.7-4.6,117.2-12.9,175.3c-12,83.8-33.2,165.1-69.1,242.1c-57.3,123.2-143.7,221.6-255.2,298.5
		c-33.7,23.3-69.2,43.3-106.3,60.7c-4.4,2.1-8.2,2.5-12.9,0.3c-150.8-72.2-267.7-180.2-346.5-328.3
		c-34.2-64.3-57.1-132.7-72.2-203.8c-9.8-46-16.2-92.4-20.2-139.3c-5.9-69.4-6.5-138.9-4.5-208.5c0.6-20.6,1.1-41.1,1.7-61.7
		C399.2,161.8,399.1,159,399.1,155.2z M1277.9,170c-287.5-48-574.2-48-861.3-0.1c-0.2,3.1-0.4,5.6-0.5,8.1
		c-0.6,25.1-1.4,50.2-1.7,75.4c-0.8,63.2-0.2,126.4,5.8,189.4c4.5,47,11.3,93.7,21.8,139.7c14,61.3,33.9,120.6,62.6,176.7
		c75.1,146.8,188.3,254.7,335.9,327.2c4.9,2.4,8.6,2.2,13.4-0.1c75.4-36.4,142.9-84.1,202.3-143.2
		c90.3-89.9,151.4-196.9,185.6-319.5c25.3-90.5,35.4-183.2,37.7-276.8c0.9-36,0.4-72.1,0.2-108.1
		C1279.4,216.2,1278.5,193.6,1277.9,170z"/>
	<path d="M1277.9,170c0.6,23.6,1.5,46.2,1.7,68.7c0.3,36,0.7,72.1-0.2,108.1c-2.3,93.6-12.5,186.3-37.7,276.8
		c-34.2,122.6-95.3,229.6-185.6,319.5c-59.3,59.1-126.8,106.8-202.3,143.2c-4.8,2.3-8.5,2.5-13.4,0.1
		c-147.6-72.5-260.8-180.3-335.9-327.2c-28.7-56.1-48.6-115.4-62.6-176.7c-10.5-46.1-17.3-92.7-21.8-139.7
		c-6-63-6.7-126.2-5.8-189.4c0.3-25.1,1.1-50.2,1.7-75.4c0.1-2.5,0.3-5,0.5-8.1C703.6,122,990.3,122,1277.9,170z M894.3,950.6
		c5.5-9.7,10.3-18,14.8-26.5c4.4-8.2,10-15.2,17.2-21.1c40.9-33.7,81.7-67.6,122.8-101.2c5.8-4.7,9.6-9.9,11.4-17.2
		c7.4-30.4,12.2-61.2,14.2-92.4c1.6-25.4,1.1-50.7-1.6-76c-0.6-5.8-2.6-10.8-5.8-15.4c-21.5-31.2-46-60-72-87.5
		c-3-3.2-6.6-5.3-11.7-6.1c0.3,2.4,0.4,4.4,0.8,6.3c4.8,22.3,9.7,44.6,14.3,67c1.1,5.5,3.6,9.8,7.6,13.7
		c12.9,12.7,24.8,26.1,35.2,41c4.8,6.9,7.6,14.4,8,22.7c2.1,39.3,1.8,78.6-2.5,117.8c-0.9,7.9-4.2,13.4-10.2,18.5
		c-37.1,31.6-73.9,63.6-110.6,95.6c-9.4,8.2-18.4,16.8-23.8,28.4c-0.2,0.4-0.8,0.5-1.4,0.8c-6.6-17.4-10.3-34.8-4.7-53.5
		c6.2-20.9,11.7-42,17.4-63c0.8-2.9,1.4-5.8,2.1-8.6c-0.5-0.2-1-0.4-1.5-0.6c-1.1,2.1-2.3,4.2-3.2,6.4
		c-7.3,16.8-14.7,33.4-21.7,50.3c-5,12.2-9.4,24.6-14.2,36.9c-2.5,6.5-2.5,12.6,0.3,19.1c5.3,12.3,10.1,24.9,15.2,37.3
		C891.6,945.3,892.6,947.2,894.3,950.6z M780.8,529.5c-0.9,0.1-1.8,0.1-2.7,0.2c0.3,6,0.5,11.9,1.1,17.9c0.8,8.1,1.8,16.1,2.7,24.2
		c0.7,6-0.5,11.6-3.8,16.7c-3.8,6-7.2,12.2-11.1,18.2c-28.6,43.2-59.9,84.4-93.5,123.9c-5.1,6-8.6,12.4-9.5,20.3
		c-1.4,14.1-3,28.2-4.6,42.3c-0.7,6.3,0.6,12.1,4.1,17.4c4.9,7.4,9.5,15,14.8,22.1c28,38,58.5,74,91,108.4
		c10.2,10.8,21.1,20.5,35,26.2c4.4,1.8,8.6,4.3,12.9,6.4c1.4,0.7,2.9,1,4.4,1.4c0.3-0.5,0.6-1,0.9-1.4c-2.7-2.5-5-5.5-8.1-7.4
		c-10.8-6.4-19.9-14.8-28.1-24.2c-31-35-60.1-71.4-86.9-109.7c-5.7-8.1-10.7-16.6-15.9-25c-3-4.9-4.5-10.2-3.9-16
		c1.1-10.1,2.1-20.2,3.4-30.2c0.7-5.5,3.6-9.8,7.7-13.6c9.1-8.5,18.1-17,26.8-25.9c25.2-25.6,19.6-16.3,35.9-51.1
		c12.6-26.8,24.1-54.2,36.1-81.3c2-4.5,3.6-9.1,2.4-14C788.4,559.9,784.5,544.7,780.8,529.5z M832.1,361.7c0.1,0.7,0.1,1.4,0.2,2.2
		c4,0.1,7.9,0.5,11.9,0.3c23.1-0.8,46.1-1.6,69.2-2.7c8.3-0.4,16.1,0.8,23.7,4.2c11.5,5.3,23,10.7,34.7,15.6
		c4.6,1.9,9.6,3.3,14.5,3.9c9.6,1.1,19.3,1,28.8,2.2c5.7,0.7,11.7,2,16.6,4.7c20.3,11.4,40.4,23.4,60.4,35.3c4.4,2.6,8.6,4.6,15.6,4
		c-14.8-14.1-28.5-27.2-42.2-40.3c-0.9-0.9-2.1-1.5-3.2-2.1c-32-18.1-64.1-36-97.6-51.3c-7.3-3.3-14.8-5.1-22.7-5.4
		c-15.5-0.6-30.9-1.5-46.4-2.1c-43.4-1.6-86.7-0.3-130,2.9c-7.5,0.6-12.4,3.5-15.7,9.9c-4.5,8.8-11.2,15.5-18.7,21.7
		c-14.4,12-28.9,24-44.9,33.9c-3.3,2-6.6,4.2-8.1,9.3c7.3-4.1,13.7-7.7,20.1-11.2c27-14.6,54-29.1,81-43.7c7-3.8,14.4-6,22.5-6.2
		c12.7-0.3,25.3-1.6,38-1.7c32-0.4,63.9-0.6,95.9-0.7c5.5,0,10.6,1.5,15.1,4.7C910.9,352.8,871.4,356.1,832.1,361.7z M562,527.4
		c-0.5,8.5-2.3,15.9-8.2,21.9c-5.4,5.4-10.3,11.3-15.2,17.1c-3.5,4.1-3.8,6-0.6,10.1c6.2,8,12.7,15.8,19.3,23.5
		c1.6,1.9,4.4,2.8,7.2,4.5c2.1-9.3,4.1-17.4,5.7-25.6c1.1-5.3,3.8-8.3,9.4-9.3c14.7-2.7,29.3-5.9,44-8.7c8.8-1.7,17.7-3.2,27.6-5
		c-2.3-2.8-3.8-4.8-5.5-6.6c-5.3-5.5-10.9-10.7-15.8-16.5c-6-7.1-13.2-10.5-22.6-10.2c-5.4,0.1-10.9-0.9-16.4-1.4
		c-0.2-0.5-0.4-1-0.5-1.5c1.9-1.4,3.7-3,5.7-4.2c1.5-0.9,3.3-1.2,5-1.8c25.6-9.7,51.2-19.4,76.8-29.1c8.1-3,13.6-8.7,17.6-16.2
		c-1.1,0-2.1,0.3-2.8,0.9c-9,8.2-19.9,11.8-31.6,13.9c-3.7,0.7-7.4,1.8-11.1,2.7c-4.5,1.1-8.8,1.3-13.3-0.7c-2.3-1-5.4-1-8-0.6
		c-5.5,0.9-10.9,2.5-16.3,3.7c-1.5,0.3-3,0.4-5.9,0.7c4.6-4.7,8.2-8,13.2-9.7c5.3-1.8,10.4-4.1,15.7-5.9c4-1.4,6.4-3.4,6.6-8
		c0.2-4.8,1.6-9.5,2.1-14.3c0.4-3.6,2-6.1,4.8-8.2c6.3-4.7,12.5-9.5,18.7-14.4c1.8-1.4,3.9-2.6,4.4-6.2c-9.4,5.6-17.7,11-26.4,15.6
		c-15.4,8.1-27.8,19.2-37.5,33.7c-2.7,4.1-6.8,7.5-10.7,10.5c-18.3,14.1-36.8,27.9-55.1,42c-5.2,4-9.9,8.8-14.3,13.7
		c-5.2,5.8-3.9,12.5,3.3,17.3c3.5-2.5,7.2-5.2,10.9-7.8c5.6-4,11.1-7.9,14-14.6C557.2,530.5,560,529.1,562,527.4z M955.9,438.3
		c10.2,1.1,18.7,2.6,27.5-0.5c6.6-2.4,13.9-3.1,20.6-5.2c8.1-2.5,14.8-0.7,21.3,4.5c15.2,12.3,30.4,24.6,45.8,36.6
		c4.7,3.7,10.1,6.7,15.6,9.3c10.1,4.7,20.5,8.9,30.7,13.3c5.6,2.4,9,6.4,10.1,12.4c0.4,2,1.1,3.9,1.4,5.9c3,21.1,5.9,42.2,9.1,63.3
		c2,13-0.3,25.2-6.3,36.8c-7.7,14.8-15.3,29.8-23.2,44.5c-1.8,3.3-4.1,6.8-7.1,8.7c-9.6,5.9-13.8,14-12.9,25.1
		c0.3,4.1-0.4,8.2-0.6,12.3c2.9-1.7,4.5-3.6,6-5.6c21.1-28.4,38.3-59.2,53.8-91c1.3-2.7,2.3-5.7,2.5-8.7c3.4-37.8,2.6-75.5-4.3-113
		c-1-5.3-3.3-9.3-7.8-12.4c-32.9-23.1-67.3-43.5-103.7-60.7c-7.4-3.5-14.4-4-21.9-0.7c-17,7.4-34,14.6-51,21.9
		C959.9,435.7,958.5,436.7,955.9,438.3z M860.8,981.3c0.4-7.9-0.5-15.3-4-22.4c-3.5-7-6.4-14.4-9.2-21.7
		c-8.9-22.9-17.8-45.9-26.3-69c-1.9-5.1-2.9-11-2.4-16.4c1.4-15.4,3.1-30.8,6-46c7.7-40.6,16.2-81.1,24.3-121.6
		c1.8-9.2-1.8-17.6-3.7-26.3c-1.6,2.1-2.6,4.1-3.4,6.2c-4.7,12.3-9.5,24.6-14,37c-13.9,38.4-27,77.1-37.4,116.6
		c-2.9,10.9-2.1,20.6,2.4,30.9c19.2,44,41.3,86.5,64.8,128.4C858.8,978.5,859.9,979.9,860.8,981.3z M654.4,450.4
		c0.2,0.6,0.4,1.2,0.6,1.8c5.5,0,11,0.3,16.4-0.1c12.3-0.9,24.9,0,36.9-3.7c15.5-4.7,31-9.4,46.4-14.5c3.1-1,6.6-3.3,8.3-6
		c8.3-13.6,16.2-27.5,24.1-41.3c0.3-0.6,0.3-1.4,0.6-3c-11-0.4-21.9-1.9-32.2,2.2c-17.4,6.9-34.6,14.4-51.6,22.2
		c-4.2,1.9-7.8,5.5-11,8.9c-5,5.4-9.6,11.1-13.9,17.1c-4.5,6.2-9.9,10.7-17.2,13C659.1,447.8,656.8,449.3,654.4,450.4z M655.7,568.3
		c-0.1,0.5-0.2,1-0.3,1.6c2.2,0.9,4.5,1.9,6.7,2.7c12.2,4.4,24.4,8.7,36.5,13.2c9.4,3.5,12.4,11.2,7.8,20
		c-8.4,15.7-18.2,30.5-29.5,44.3c-2.2,2.6-5.2,5.1-8.3,6.2c-10.9,4-22.1,7.3-33.2,11.1c-3.8,1.3-6.8,0.6-9.7-2
		c-3.6-3.2-7.3-6.4-10.9-9.5c-1.2-1-2.7-1.9-4.7-3.3c-0.8,9.7-1.8,18.2,2,26.9c3.6,8,5.6,16.8,8,25.3c2,7.1,3.3,14.3,5.1,21.5
		c1.3,5,2.8,6.2,7.6,5.1c7.4-1.7,14.8-3.5,21.9-6.3c3.7-1.5,6.6-5,9.8-7.7c-2.4-1-4-1-5.6-0.6c-5.9,1.3-11.8,2.9-17.8,3.9
		c-5.3,1-6.2,0.2-7.3-5c-1.5-7.5-2.8-15-4-22.5c-1.2-6.8-0.8-7.3,6.2-9.7c15.3-5.3,30.7-10.6,46.1-15.7c4-1.3,7.5-3.1,9.6-6.9
		c11.3-19.9,22.6-39.7,33.7-59.6c1-1.8,1.8-4.7,1.1-6.5c-2.5-6.4-5.6-12.5-13.4-14.3c-16-3.8-32-8-48-11.8
		C662,568.1,658.8,568.4,655.7,568.3z M908.2,537.1c-0.4-2.5-0.6-4-0.9-5.4c-3.1-14.9-6.2-29.8-9.4-44.6c-1.2-5.7-1.5-10.9,2.8-15.7
		c2.7-3,4.6-6.6,6.8-10.1c12.4-20.1,12.3-14.2,6.7-40.2c-0.2-1-0.4-2-0.8-2.9c-0.6-1.1-1.3-2.4-2.3-2.9c-6.2-3.3-12.2-6.8-20-5.1
		c-20.8,4.5-41.7,8.3-62.6,12.5c-8.9,1.8-13.7,7.5-15,17.4c4.4,0.8,8.9,1.4,13.3,2.5c6.4,1.7,12.3,0.7,18.4-1.9
		c12.8-5.4,26-9.9,38.9-15.3c4.9-2.1,9.4-1.5,13.9,0.4c7.6,3.2,10.9,14.2,6.1,20.8c-5.6,7.8-11.4,15.5-17.4,23.1
		c-2.6,3.3-3.3,6.4-2,10.5c4.9,15.2,9.5,30.5,14.1,45.7C900.2,530.5,902.7,533.9,908.2,537.1z M667,258c-23.2,1.6-45.6,3.2-68.1,4.7
		c0-5.9,0-10.8,0-16.4c20.3-1.6,40.2-3.1,60.4-4.7c0-3.5,0-6.4,0-10.2c-20.3,1.5-40.1,2.9-60.3,4.3c0-5.2,0-9.8,0-15
		c22.9-1.7,45.3-3.4,67.8-5.1c0.2-2.1,0.4-3.6,0.4-5.1c0-1.4-0.2-2.9-0.5-5.3c-26.7,2-52.8,4-78.9,6c0,21.5,0,41.9,0,62.9
		c26.7-2,52.9-4,79.1-6C667,264.6,667,261.9,667,258z M878.9,252.7c-18.7,0-36.5,0.1-54.2-0.1c-5.6,0-7.7-2.3-7.8-8
		c-0.2-7.9-0.1-15.7,0-23.6c0-9.3,1.2-10.6,10.5-10.7c16.7-0.1,33.5,0,50.2,0.1c2.7,0,5.4,0,8.3,0c0-3.9,0-6.7,0-9.9
		c-1.7-0.2-2.9-0.4-4.1-0.4c-18.3-0.1-36.5-0.2-54.8-0.1c-2.8,0-5.6,0.4-8.3,1c-7.7,1.6-12,5.6-12.4,13.3c-0.6,11.9-0.5,23.9,0,35.8
		c0.3,7.1,4.5,10.9,11.5,12.1c3.2,0.6,6.6,0.8,9.8,0.9c18.5,0.2,37,0.2,55.6,0.3c2.2,0,4.4-0.3,7.1-0.5c0.3-12.5,0.5-24.5-0.1-36.6
		c-15.1,0-29.2,0-43.1,0c0,3.5,0,6.4,0,10.1c10.9,0,21.2,0,31.7,0C878.9,242,878.9,247,878.9,252.7z M928.5,211.5
		c23.2,0.8,45.7,1.7,68.5,2.5c0-3.6,0-6.5,0-10c-26.6-1.3-52.8-2.8-79.7-2.9c0,21.4-0.1,41.8,0,62.5c27.3,1,53.5,2,80.2,3.1
		c-0.2-4-0.3-6.9-0.5-10.3c-23.3-1-45.8-1.9-68.5-2.8c0-5.6,0-10.6,0-15.6c10.6,0,20.6,0,30.7,0c10,0.1,20,1.8,29.9,0.9
		c0-3.7,0-6.6,0-9.9c-20.5-0.8-40.4-1.6-60.7-2.5C928.5,221.5,928.5,217.1,928.5,211.5z M1110.7,243.4
		C1110.7,243.4,1110.8,243.4,1110.7,243.4c0-4.8,0-9.6,0-14.4c0-0.5,0-1,0-1.5c-0.4-8.3-4-13.1-12-15.6c-2.4-0.8-4.9-1.3-7.4-1.5
		c-15.4-1.2-30.8-2.4-46.2-3.5c-2.8-0.2-5.6-0.1-8.3,0.2c-8.1,0.8-12.2,4.5-12.5,12.5c-0.5,11.6-0.5,23.3,0.1,35
		c0.3,7.9,4.3,11.9,12,13.7c3.4,0.8,7,1.2,10.5,1.5c11.1,0.9,22.2,1.8,33.3,2.5c6.1,0.4,12.2,0.8,18.2,0.5c7.9-0.4,12-4.7,12.3-12.6
		C1110.9,254.6,1110.7,249,1110.7,243.4z M490.7,265.2c14.4-1.6,27.8-3.1,41.1-4.7c6.3-0.8,12.6-1.5,18.7-2.8
		c6.1-1.3,10.8-5.3,11.6-11.7c0.8-6.5,0.8-13.1,0.1-19.6c-0.6-5.9-4.7-9.4-10.6-10.3c-2.7-0.4-5.6-0.6-8.3-0.3
		c-12.3,1.2-24.7,2.5-37,3.9c-8.7,1-17.4,2.2-26.2,3.4c0,21.2,0,41.6,0,62.6c3.6-0.4,6.8-0.8,10.6-1.3
		C490.7,278.2,490.7,272.2,490.7,265.2z M705.2,203.7c-4.1,0.2-7.3,0.4-11.3,0.6c0,3.3,0,6.1,0,8.8c0,11.7-0.1,23.4,0,35
		c0.2,12.9,4.5,17.2,17.6,17.6c0.5,0,1,0,1.5,0c16.2-0.6,32.5-1,48.7-2c13.1-0.8,17.3-5.5,17.4-18.9c0.1-12.4,0-24.9,0-37.3
		c0-2-0.2-3.9-0.4-6.2c-3.6,0-6.8,0-10.5,0c-0.1,2.8-0.4,5.3-0.4,7.8c0,12.2,0.1,24.4-0.1,36.6c-0.1,6.2-1.3,7.7-7.6,8
		c-16,0.8-31.9,1.4-47.9,1.9c-5.6,0.2-7-1.4-7.1-7.4c-0.1-6.3,0-12.7,0-19C705.2,221.2,705.2,213.1,705.2,203.7z M1214.2,222.9
		c-28-3.1-55.3-6.2-83.2-9.3c0,3.9,0,6.8,0,10.3c12,1.4,23.7,2.7,36.2,4.1c0,17.7,0,34.8,0,52.1c4,0.5,7.2,1,11.4,1.5
		c0-17.7,0-34.6,0-52.3c12.4,1.3,23.9,2.5,35.6,3.8C1214.2,229.5,1214.2,226.8,1214.2,222.9z M690.8,617.1c-0.6-0.6-1.1-1.1-1.7-1.7
		c-16.7,13.8-33.5,27.6-50.2,41.4c0.2,0.5,0.5,0.9,0.7,1.4c9-3.1,18-6.2,26.9-9.5c1.3-0.5,2.6-1.6,3.5-2.8
		C677,636.4,683.9,626.8,690.8,617.1z M592.6,595.9c-9.2,2.3-16,5.7-20,13.5c5.2,6,9.8,11.2,15,17.2c0.7-2.5,1.2-3.9,1.4-5.3
		C590.2,613.3,591.3,605.4,592.6,595.9z M659,460.7c-0.2,5.3-0.4,9.7-0.6,14.2c15.1-1.6,17.5-4.3,13.5-14.9
		C668.1,460.2,664.1,460.4,659,460.7z"/>
	<path class="st0" d="M894.3,950.6c-1.7-3.4-2.7-5.4-3.6-7.4c-5.1-12.4-9.9-25-15.2-37.3c-2.8-6.5-2.8-12.7-0.3-19.1
		c4.8-12.3,9.1-24.7,14.2-36.9c7-16.9,14.4-33.6,21.7-50.3c1-2.2,2.1-4.3,3.2-6.4c0.5,0.2,1,0.4,1.5,0.6c-0.7,2.9-1.3,5.8-2.1,8.6
		c-5.8,21-11.2,42.2-17.4,63c-5.6,18.6-1.8,36.1,4.7,53.5c0.5-0.3,1.2-0.4,1.4-0.8c5.4-11.6,14.4-20.2,23.8-28.4
		c36.8-32,73.6-63.9,110.6-95.6c6-5.1,9.3-10.6,10.2-18.5c4.3-39.2,4.6-78.5,2.5-117.8c-0.4-8.3-3.3-15.8-8-22.7
		c-10.3-14.9-22.3-28.3-35.2-41c-3.9-3.9-6.4-8.2-7.6-13.7c-4.6-22.4-9.5-44.6-14.3-67c-0.4-1.9-0.5-3.9-0.8-6.3
		c5,0.8,8.6,2.9,11.7,6.1c26,27.5,50.5,56.3,72,87.5c3.2,4.7,5.2,9.6,5.8,15.4c2.7,25.3,3.2,50.6,1.6,76c-1.9,31.2-6.8,62-14.2,92.4
		c-1.8,7.4-5.6,12.5-11.4,17.2c-41.1,33.5-81.9,67.4-122.8,101.2c-7.1,5.9-12.8,12.9-17.2,21.1C904.6,932.6,899.8,940.9,894.3,950.6
		z"/>
	<path class="st0" d="M780.8,529.5c3.8,15.2,7.6,30.4,11.2,45.7c1.2,4.9-0.4,9.5-2.4,14c-12,27.1-23.5,54.5-36.1,81.3
		c-16.3,34.8-10.7,25.5-35.9,51.1c-8.7,8.9-17.7,17.4-26.8,25.9c-4.1,3.8-7,8.1-7.7,13.6c-1.3,10.1-2.3,20.1-3.4,30.2
		c-0.6,5.8,0.9,11.1,3.9,16c5.2,8.4,10.2,16.9,15.9,25c26.8,38.3,55.9,74.8,86.9,109.7c8.3,9.4,17.3,17.8,28.1,24.2
		c3.1,1.8,5.4,4.9,8.1,7.4c-0.3,0.5-0.6,1-0.9,1.4c-1.5-0.5-3-0.8-4.4-1.4c-4.3-2.1-8.5-4.6-12.9-6.4c-13.9-5.8-24.8-15.5-35-26.2
		c-32.5-34.3-62.9-70.3-91-108.4c-5.3-7.1-9.9-14.7-14.8-22.1c-3.4-5.3-4.8-11.1-4.1-17.4c1.6-14.1,3.2-28.2,4.6-42.3
		c0.8-7.9,4.3-14.3,9.5-20.3C707,691,738.4,649.8,767,606.6c3.9-5.9,7.3-12.2,11.1-18.2c3.3-5.2,4.5-10.7,3.8-16.7
		c-0.9-8.1-2-16.1-2.7-24.2c-0.6-5.9-0.7-11.9-1.1-17.9C779,529.6,779.9,529.5,780.8,529.5z"/>
	<path class="st0" d="M832.1,361.7c39.3-5.6,78.8-8.9,118.5-12.3c-4.5-3.3-9.7-4.8-15.1-4.7c-32,0.1-63.9,0.2-95.9,0.7
		c-12.7,0.2-25.3,1.5-38,1.7c-8.1,0.2-15.4,2.4-22.5,6.2c-27,14.6-54,29.1-81,43.7c-6.4,3.5-12.8,7.1-20.1,11.2
		c1.5-5.2,4.8-7.3,8.1-9.3c16-9.9,30.5-21.8,44.9-33.9c7.5-6.2,14.3-13,18.7-21.7c3.3-6.4,8.1-9.3,15.7-9.9
		c43.3-3.3,86.6-4.5,130-2.9c15.5,0.6,30.9,1.4,46.4,2.1c8,0.3,15.5,2.1,22.7,5.4c33.5,15.3,65.6,33.2,97.6,51.3
		c1.1,0.6,2.3,1.2,3.2,2.1c13.7,13.1,27.4,26.2,42.2,40.3c-6.9,0.6-11.2-1.4-15.6-4c-20-12-40-23.9-60.4-35.3
		c-4.9-2.7-10.9-4-16.6-4.7c-9.5-1.2-19.3-1.1-28.8-2.2c-4.9-0.6-9.9-1.9-14.5-3.9c-11.7-4.9-23.2-10.2-34.7-15.6
		c-7.6-3.5-15.4-4.6-23.7-4.2c-23.1,1.1-46.1,1.9-69.2,2.7c-3.9,0.1-7.9-0.2-11.9-0.3C832.2,363.1,832.2,362.4,832.1,361.7z"/>
	<path class="st0" d="M562,527.4c-1.9,1.7-4.7,3.1-5.7,5.3c-2.9,6.7-8.5,10.6-14,14.6c-3.7,2.7-7.4,5.3-10.9,7.8
		c-7.2-4.9-8.5-11.5-3.3-17.3c4.4-4.9,9.1-9.6,14.3-13.7c18.2-14.2,36.8-27.9,55.1-42c4-3.1,8-6.5,10.7-10.5
		c9.7-14.5,22.2-25.5,37.5-33.7c8.7-4.6,17-10,26.4-15.6c-0.4,3.6-2.6,4.9-4.4,6.2c-6.2,4.8-12.4,9.7-18.7,14.4
		c-2.8,2.1-4.5,4.6-4.8,8.2c-0.5,4.8-1.8,9.5-2.1,14.3c-0.2,4.6-2.6,6.7-6.6,8c-5.3,1.8-10.4,4.1-15.7,5.9c-5,1.7-8.7,5-13.2,9.7
		c2.8-0.3,4.4-0.3,5.9-0.7c5.4-1.2,10.8-2.8,16.3-3.7c2.6-0.4,5.7-0.5,8,0.6c4.5,2,8.8,1.8,13.3,0.7c3.7-0.9,7.4-2,11.1-2.7
		c11.6-2.2,22.6-5.7,31.6-13.9c0.7-0.6,1.6-0.9,2.8-0.9c-4,7.4-9.5,13.1-17.6,16.2c-25.6,9.7-51.2,19.4-76.8,29.1
		c-1.7,0.6-3.5,1-5,1.8c-2,1.2-3.8,2.8-5.7,4.2c0.2,0.5,0.4,1,0.5,1.5c5.5,0.5,10.9,1.5,16.4,1.4c9.4-0.2,16.6,3.1,22.6,10.2
		c4.9,5.8,10.6,11,15.8,16.5c1.7,1.8,3.2,3.8,5.5,6.6c-9.9,1.8-18.8,3.3-27.6,5c-14.7,2.9-29.3,6.1-44,8.7c-5.6,1-8.3,4-9.4,9.3
		c-1.7,8.2-3.6,16.3-5.7,25.6c-2.8-1.7-5.5-2.6-7.2-4.5c-6.7-7.7-13.1-15.5-19.3-23.5c-3.2-4.1-2.9-6,0.6-10.1
		c4.9-5.8,9.8-11.7,15.2-17.1C559.6,543.3,561.4,535.9,562,527.4z"/>
	<path class="st0" d="M955.9,438.3c2.7-1.6,4-2.6,5.5-3.2c17-7.3,34.1-14.5,51-21.9c7.5-3.3,14.5-2.8,21.9,0.7
		c36.4,17.1,70.8,37.6,103.7,60.7c4.5,3.2,6.8,7.1,7.8,12.4c6.9,37.5,7.7,75.2,4.3,113c-0.3,3-1.2,6-2.5,8.7
		c-15.4,31.8-32.6,62.5-53.8,91c-1.5,2-3.1,3.9-6,5.6c0.2-4.1,0.9-8.2,0.6-12.3c-0.9-11.2,3.3-19.3,12.9-25.1c3-1.9,5.4-5.4,7.1-8.7
		c7.9-14.8,15.5-29.7,23.2-44.5c6-11.6,8.3-23.8,6.3-36.8c-3.2-21.1-6-42.2-9.1-63.3c-0.3-2-1-3.9-1.4-5.9c-1.1-6-4.6-10-10.1-12.4
		c-10.3-4.4-20.6-8.5-30.7-13.3c-5.4-2.6-10.8-5.6-15.6-9.3c-15.5-12-30.7-24.2-45.8-36.6c-6.4-5.2-13.2-6.9-21.3-4.5
		c-6.8,2.1-14,2.8-20.6,5.2C974.6,440.9,966.1,439.4,955.9,438.3z"/>
	<path class="st0" d="M860.8,981.3c-1-1.4-2.1-2.8-2.9-4.3c-23.5-41.8-45.7-84.3-64.8-128.4c-4.5-10.3-5.3-20.1-2.4-30.9
		c10.4-39.6,23.5-78.2,37.4-116.6c4.5-12.4,9.3-24.7,14-37c0.8-2.1,1.8-4.1,3.4-6.2c2,8.7,5.6,17.1,3.7,26.3
		c-8.1,40.5-16.5,81-24.3,121.6c-2.9,15.2-4.5,30.6-6,46c-0.5,5.4,0.5,11.3,2.4,16.4c8.4,23.1,17.4,46,26.3,69
		c2.8,7.3,5.8,14.7,9.2,21.7C860.3,965.9,861.3,973.4,860.8,981.3z"/>
	<path class="st0" d="M654.4,450.4c2.4-1.2,4.8-2.7,7.3-3.5c7.3-2.3,12.7-6.8,17.2-13c4.3-6,8.9-11.7,13.9-17.1
		c3.2-3.4,6.9-7,11-8.9c17-7.8,34.2-15.3,51.6-22.2c10.3-4.1,21.2-2.6,32.2-2.2c-0.3,1.6-0.2,2.5-0.6,3c-8,13.8-15.8,27.8-24.1,41.3
		c-1.7,2.7-5.1,5-8.3,6c-15.4,5.1-30.9,9.8-46.4,14.5c-12.1,3.7-24.6,2.7-36.9,3.7c-5.4,0.4-10.9,0.1-16.4,0.1
		C654.7,451.6,654.6,451,654.4,450.4z"/>
	<path class="st0" d="M655.7,568.3c3.1,0.1,6.3-0.2,9.2,0.5c16,3.8,32,8,48,11.8c7.8,1.9,10.9,7.9,13.4,14.3
		c0.7,1.8-0.1,4.6-1.1,6.5c-11.1,19.9-22.4,39.8-33.7,59.6c-2.1,3.8-5.7,5.6-9.6,6.9c-15.4,5.2-30.7,10.5-46.1,15.7
		c-7,2.4-7.3,2.9-6.2,9.7c1.3,7.5,2.6,15,4,22.5c1,5.2,2,5.9,7.3,5c6-1.1,11.9-2.7,17.8-3.9c1.6-0.3,3.3-0.4,5.6,0.6
		c-3.3,2.6-6.1,6.2-9.8,7.7c-7,2.8-14.5,4.6-21.9,6.3c-4.8,1.1-6.3-0.1-7.6-5.1c-1.8-7.1-3.2-14.4-5.1-21.5
		c-2.4-8.5-4.4-17.3-8-25.3c-3.9-8.7-2.8-17.2-2-26.9c2,1.4,3.5,2.2,4.7,3.3c3.7,3.1,7.4,6.2,10.9,9.5c2.9,2.6,5.9,3.3,9.7,2
		c11-3.8,22.2-7.1,33.2-11.1c3.1-1.2,6.2-3.6,8.3-6.2c11.3-13.8,21.1-28.6,29.5-44.3c4.6-8.7,1.6-16.5-7.8-20
		c-12.1-4.5-24.3-8.8-36.5-13.2c-2.3-0.8-4.5-1.8-6.7-2.7C655.5,569.3,655.6,568.8,655.7,568.3z"/>
	<path class="st0" d="M908.2,537.1c-5.5-3.2-8-6.7-9.4-11.3c-4.6-15.3-9.3-30.5-14.1-45.7c-1.3-4.1-0.6-7.2,2-10.5
		c6-7.6,11.8-15.3,17.4-23.1c4.8-6.6,1.4-17.6-6.1-20.8c-4.5-1.9-8.9-2.4-13.9-0.4c-12.9,5.3-26.1,9.9-38.9,15.3
		c-6.1,2.6-12,3.5-18.4,1.9c-4.4-1.1-8.9-1.7-13.3-2.5c1.3-9.9,6.1-15.6,15-17.4c20.8-4.2,41.8-8.1,62.6-12.5
		c7.8-1.7,13.8,1.8,20,5.1c1,0.5,1.7,1.8,2.3,2.9c0.5,0.9,0.6,1.9,0.8,2.9c5.6,26,5.7,20.1-6.7,40.2c-2.1,3.5-4.1,7.1-6.8,10.1
		c-4.3,4.8-4,10-2.8,15.7c3.2,14.9,6.3,29.7,9.4,44.6C907.6,533.1,907.8,534.6,908.2,537.1z"/>
	<path class="st0" d="M667,258c0,3.8,0,6.5,0,10.2c-26.3,2-52.4,4-79.1,6c0-20.9,0-41.3,0-62.9c26.1-2,52.3-4,78.9-6
		c0.2,2.4,0.5,3.8,0.5,5.3c0,1.5-0.2,3-0.4,5.1c-22.5,1.7-44.9,3.4-67.8,5.1c0,5.2,0,9.8,0,15c20.2-1.5,40-2.9,60.3-4.3
		c0,3.9,0,6.8,0,10.2c-20.2,1.6-40.1,3.1-60.4,4.7c0,5.5,0,10.5,0,16.4C621.4,261.2,643.7,259.6,667,258z"/>
	<path class="st0" d="M878.9,252.7c0-5.7,0-10.7,0-16.5c-10.6,0-20.8,0-31.7,0c0-3.7,0-6.6,0-10.1c13.9,0,28,0,43.1,0
		c0.6,12.1,0.4,24.1,0.1,36.6c-2.7,0.2-4.9,0.5-7.1,0.5c-18.5,0-37-0.1-55.6-0.3c-3.3,0-6.6-0.3-9.8-0.9c-7-1.2-11.2-5.1-11.5-12.1
		c-0.5-11.9-0.5-23.9,0-35.8c0.4-7.7,4.7-11.7,12.4-13.3c2.7-0.6,5.5-1,8.3-1c18.3,0,36.5,0.1,54.8,0.1c1.2,0,2.4,0.2,4.1,0.4
		c0,3.2,0,6.1,0,9.9c-2.9,0-5.6,0-8.3,0c-16.7,0-33.5-0.1-50.2-0.1c-9.3,0-10.5,1.4-10.5,10.7c0,7.9-0.1,15.7,0,23.6
		c0.1,5.7,2.2,8,7.8,8C842.5,252.8,860.2,252.7,878.9,252.7z"/>
	<path class="st0" d="M928.5,211.5c0,5.6,0,10,0,15c20.3,0.8,40.2,1.6,60.7,2.5c0,3.4,0,6.2,0,9.9c-9.9,0.9-19.9-0.9-29.9-0.9
		c-10.1-0.1-20.2,0-30.7,0c0,5,0,9.9,0,15.6c22.7,0.9,45.2,1.9,68.5,2.8c0.2,3.3,0.3,6.2,0.5,10.3c-26.7-1-52.9-2-80.2-3.1
		c-0.1-20.7,0-41.1,0-62.5c26.9,0.1,53.1,1.6,79.7,2.9c0,3.5,0,6.4,0,10C974.2,213.1,951.8,212.3,928.5,211.5z"/>
	<path class="st0" d="M1110.7,243.4c0,5.6,0.2,11.2-0.1,16.7c-0.4,7.9-4.5,12.2-12.3,12.6c-6,0.3-12.2-0.1-18.2-0.5
		c-11.1-0.7-22.2-1.6-33.3-2.5c-3.5-0.3-7.1-0.7-10.5-1.5c-7.7-1.8-11.6-5.8-12-13.7c-0.5-11.6-0.5-23.3-0.1-35
		c0.3-8,4.5-11.7,12.5-12.5c2.8-0.3,5.6-0.4,8.3-0.2c15.4,1.1,30.8,2.2,46.2,3.5c2.5,0.2,5,0.8,7.4,1.5c8,2.5,11.6,7.3,12,15.6
		c0,0.5,0,1,0,1.5C1110.8,233.8,1110.8,238.6,1110.7,243.4C1110.8,243.4,1110.7,243.4,1110.7,243.4z M1099.9,242.5
		c0-4.6,0.1-9.1,0-13.7c-0.2-5.5-1.8-7.5-7.1-7.9c-16.9-1.5-33.8-2.8-50.7-4c-4.7-0.3-6.9,1.4-7,6c-0.3,9.9-0.3,19.7,0,29.6
		c0.1,4.3,2.4,6.2,6.9,6.6c16.9,1.4,33.8,2.6,50.7,3.8c5.1,0.3,6.8-1.5,7-6.6C1100.1,251.6,1099.9,247,1099.9,242.5z"/>
	<path class="st0" d="M490.7,265.2c0,6.9,0,12.9,0,19.3c-3.8,0.5-7,0.8-10.6,1.3c0-21.1,0-41.5,0-62.6c8.8-1.1,17.5-2.4,26.2-3.4
		c12.3-1.4,24.7-2.7,37-3.9c2.7-0.3,5.6-0.1,8.3,0.3c5.9,0.9,10,4.4,10.6,10.3c0.6,6.5,0.7,13.1-0.1,19.6
		c-0.8,6.4-5.5,10.3-11.6,11.7c-6.2,1.4-12.5,2-18.7,2.8C518.5,262.1,505.1,263.6,490.7,265.2z M491.2,254.7
		c5.7-0.6,10.4-1.2,15.2-1.7c12.8-1.4,25.6-2.8,38.4-4.4c5.6-0.7,6.8-2.3,7-7.9c0.1-2.5,0.1-5.1,0-7.6c-0.2-6.3-1.8-7.7-7.8-7.1
		c-9.3,0.9-18.6,1.9-27.9,3c-8.2,1-16.4,2.1-24.9,3.2C491.2,239.8,491.2,246.7,491.2,254.7z"/>
	<path class="st0" d="M705.2,203.7c0,9.4,0,17.5,0,25.6c0,6.3-0.1,12.7,0,19c0.1,5.9,1.5,7.5,7.1,7.4c16-0.5,32-1.1,47.9-1.9
		c6.3-0.3,7.5-1.8,7.6-8c0.1-12.2,0-24.4,0.1-36.6c0-2.5,0.2-4.9,0.4-7.8c3.7,0,6.8,0,10.5,0c0.1,2.2,0.4,4.2,0.4,6.2
		c0,12.4,0.1,24.9,0,37.3c-0.1,13.3-4.3,18.1-17.4,18.9c-16.2,0.9-32.4,1.3-48.7,2c-0.5,0-1,0-1.5,0c-13-0.5-17.4-4.7-17.6-17.6
		c-0.2-11.7,0-23.4,0-35c0-2.7,0-5.5,0-8.8C697.9,204.1,701.1,203.9,705.2,203.7z"/>
	<path class="st0" d="M1214.2,222.9c0,3.9,0,6.7,0,10.3c-11.7-1.2-23.2-2.5-35.6-3.8c0,17.7,0,34.6,0,52.3c-4.2-0.6-7.4-1-11.4-1.5
		c0-17.3,0-34.5,0-52.1c-12.5-1.4-24.2-2.7-36.2-4.1c0-3.5,0-6.4,0-10.3C1158.8,216.7,1186.2,219.8,1214.2,222.9z"/>
	<path class="st0" d="M690.8,617.1c-6.9,9.6-13.8,19.3-20.8,28.9c-0.9,1.2-2.2,2.3-3.5,2.8c-8.9,3.3-18,6.4-26.9,9.5
		c-0.2-0.5-0.5-0.9-0.7-1.4c16.7-13.8,33.5-27.6,50.2-41.4C689.6,616,690.2,616.6,690.8,617.1z"/>
	<path class="st0" d="M592.6,595.9c-1.3,9.4-2.4,17.4-3.6,25.4c-0.2,1.4-0.7,2.8-1.4,5.3c-5.2-6-9.8-11.2-15-17.2
		C576.6,601.6,583.3,598.2,592.6,595.9z"/>
	<path class="st0" d="M659,460.7c5.1-0.3,9.1-0.5,12.9-0.7c4,10.6,1.6,13.2-13.5,14.9C658.6,470.4,658.7,466,659,460.7z"/>
	<path d="M1099.9,242.5c0,4.6,0.1,9.1,0,13.7c-0.2,5.1-2,6.9-7,6.6c-16.9-1.1-33.8-2.4-50.7-3.8c-4.5-0.4-6.8-2.3-6.9-6.6
		c-0.3-9.9-0.3-19.7,0-29.6c0.1-4.5,2.3-6.3,7-6c16.9,1.2,33.8,2.5,50.7,4c5.3,0.5,6.9,2.4,7.1,7.9
		C1100,233.3,1099.9,237.9,1099.9,242.5z"/>
	<path d="M491.2,254.7c0-8,0-14.9,0-22.5c8.5-1.1,16.7-2.2,24.9-3.2c9.3-1.1,18.6-2.1,27.9-3c6-0.6,7.6,0.9,7.8,7.1
		c0.1,2.5,0.1,5.1,0,7.6c-0.2,5.6-1.4,7.2-7,7.9c-12.8,1.6-25.6,2.9-38.4,4.4C501.6,253.5,496.9,254.1,491.2,254.7z"/>
</g>
</svg>
