<?xml version="1.0" encoding="utf-8"?>
<!-- Generator: Adobe Illustrator 26.0.3, SVG Export Plug-In . SVG Version: 6.00 Build 0)  -->
<svg version="1.0" id="katman_1" xmlns="http://www.w3.org/2000/svg" xmlns:xlink="http://www.w3.org/1999/xlink" x="0px" y="0px"
	 viewBox="0 0 600 450" style="enable-background:new 0 0 600 450;" xml:space="preserve">
<g id="Scott_Sports" transform="translate(72.667 14.834)">
	<path id="Scott_Sports-2" d="M54.5,254.4c3,0,5.7-1.5,7.3-4l0.5-0.8l2.3-3.9L74.7,228c3.7-6.2,3.7-14,0-20.2l0,0l-13.9-24.1
		L53.7,196l-1,1.9l-0.2,0.4c-1.4,2.6-1.4,5.6-0.1,8.2l0.5,0.8l0.9,1.5l4.7,8.3c0.9,1.7,0.9,3.8,0,5.6l-6.9,12.2
		c-0.4,0.8-1,1.4-1.8,1.9c-0.9,0.5-1.9,0.8-2.9,0.8H29.6l-9.7,16.8H54.5z M35.8,166.7c-3,0-5.7,1.5-7.3,4l-0.5,0.8l-2.3,4
		l-10.1,17.6c-3.7,6.2-3.7,14,0,20.2l0,0l13.9,23.9l7.1-12.3l1-1.9l0.2-0.4c1.4-2.6,1.4-5.6,0.1-8.2l-0.5-0.8l-0.9-1.5l-4.7-8.3
		c-0.5-0.9-0.7-1.8-0.7-2.8c0-1,0.3-1.9,0.7-2.8l7-12.2c0.4-0.8,1-1.4,1.8-1.9c0.9-0.5,1.9-0.8,2.9-0.8h17.3l9.7-16.7H35.8z
		 M385.5,191.5l-4.1,7.2h16.2l-17.8,30.8h23.9l17.8-30.9h16.8l4.1-7.2L385.5,191.5z M318.1,191.5l-4.1,7.2h21l-17.7,30.8h23.9
		l17.8-30.9h16.8l4.1-7.2L318.1,191.5z M202.7,201c0.8-1.5,2.4-2.4,4.1-2.3H234l4.1-7.3h-44.5c-8.8,0-12.1,4.8-14.9,10l-10.4,17.8
		c-3.5,6.2,1.3,10.3,6.3,10.3h41.8l4.2-7.2h-24.4c-5.7,0-3.6-3.8-2.8-5L202.7,201z M130.9,206.7c-5.7,0-3.6-3.8-2.8-5l1.6-2.8h43.1
		l4.1-7.2h-57.7c-8.8,0-12.1,4.8-14.9,10l-0.3,0.6l0,0l-1.3,2.4c-3.5,6.2,1.3,10.3,6.2,10.3h26.9c5.7,0,3.6,3.8,2.8,5l-1.5,2.4H92.2
		l-4.1,7.2h68.6l7.3-12.7c3.5-6.2-1.3-10.3-6.2-10.3L130.9,206.7z M309.3,201.7c3.5-6.2-1.3-10.3-6.2-10.3h-48.7
		c-8.8,0-12.1,4.8-14.9,10l-10.3,17.8c-3.5,6.2,1.3,10.3,6.2,10.3h48.6c8.8,0,12.1-4.8,14.9-10L309.3,201.7z M284,203.8l-4.1,7.2
		l0,0l-3.6,6.4l-1.5,2.7c-0.8,1.5-2.4,2.4-4.1,2.3h-13.7c-5.7,0-3.6-3.8-2.8-5l4.2-7.3l0,0l3.7-6.4l0.2-0.3l1.3-2.4
		c0.8-1.5,2.4-2.4,4.1-2.3h13.6C286.9,198.7,284.8,202.5,284,203.8L284,203.8z"/>
</g>
</svg>
